REM DIRINDEX 1\2\5,1\2\6,1\2\7,1\2\8,1\3\9,1\3\10,1\3\11,1\4\12,1\4\13,1\4\14,1\4\15,1\4\16
REM DIRNAME folder01,folder02,folder03,folder04,folder05,folder06,folder07,folder08,folder09,folder10,folder11,folder12,folder13,folder14,folder15,folder16
TITLE ""
FILE "1200_sec05_1580_1588.mp3" MP3
  TRACK 01 AUDIO
    TITLE "0:"
    INDEX 01 00:00:00
  TRACK 02 AUDIO
    TITLE "12:cjc034_10067"
    INDEX 01 00:00:17
  TRACK 03 AUDIO
    TITLE "0:"
    INDEX 01 00:01:42
  TRACK 04 AUDIO
    TITLE "13:cjc034_10068"
    INDEX 01 00:02:00
  TRACK 05 AUDIO
    TITLE "0:"
    INDEX 01 00:04:74
  TRACK 06 AUDIO
    TITLE "14:cjc034_10069"
    INDEX 01 00:05:32
  TRACK 07 AUDIO
    TITLE "0:"
    INDEX 01 00:06:57
  TRACK 08 AUDIO
    TITLE "15:cjc034_10070"
    INDEX 01 00:07:17
  TRACK 09 AUDIO
    TITLE "0:"
    INDEX 01 00:11:40
  TRACK 10 AUDIO
    TITLE "12:cjc034_10071"
    INDEX 01 00:12:71
  TRACK 11 AUDIO
    TITLE "0:"
    INDEX 01 00:14:02
  TRACK 12 AUDIO
    TITLE "13:cjc034_10072"
    INDEX 01 00:14:33
  TRACK 13 AUDIO
    TITLE "0:"
    INDEX 01 00:16:49
  TRACK 14 AUDIO
    TITLE "14:cjc034_10073"
    INDEX 01 00:17:08
  TRACK 15 AUDIO
    TITLE "0:"
    INDEX 01 00:18:11
  TRACK 16 AUDIO
    TITLE "15:cjc034_10074"
    INDEX 01 00:18:46
  TRACK 17 AUDIO
    TITLE "0:"
    INDEX 01 00:21:45
  TRACK 18 AUDIO
    TITLE "12:cjc034_10075"
    INDEX 01 00:23:03
  TRACK 19 AUDIO
    TITLE "0:"
    INDEX 01 00:24:12
  TRACK 20 AUDIO
    TITLE "13:cjc034_10076"
    INDEX 01 00:24:45
  TRACK 21 AUDIO
    TITLE "0:"
    INDEX 01 00:26:46
  TRACK 22 AUDIO
    TITLE "14:cjc034_10077"
    INDEX 01 00:27:02
  TRACK 23 AUDIO
    TITLE "0:"
    INDEX 01 00:28:12
  TRACK 24 AUDIO
    TITLE "15:cjc034_10078"
    INDEX 01 00:28:45
  TRACK 25 AUDIO
    TITLE "0:"
    INDEX 01 00:34:69
  TRACK 26 AUDIO
    TITLE "12:cjc034_10079"
    INDEX 01 00:36:25
  TRACK 27 AUDIO
    TITLE "0:"
    INDEX 01 00:37:54
  TRACK 28 AUDIO
    TITLE "13:cjc034_10080"
    INDEX 01 00:38:12
  TRACK 29 AUDIO
    TITLE "0:"
    INDEX 01 00:41:30
  TRACK 30 AUDIO
    TITLE "14:cjc034_10081"
    INDEX 01 00:41:65
  TRACK 31 AUDIO
    TITLE "0:"
    INDEX 01 00:43:17
  TRACK 32 AUDIO
    TITLE "15:cjc034_10082"
    INDEX 01 00:43:52
  TRACK 33 AUDIO
    TITLE "0:"
    INDEX 01 00:48:57
  TRACK 34 AUDIO
    TITLE "12:cjc034_10083"
    INDEX 01 00:50:15
  TRACK 35 AUDIO
    TITLE "0:"
    INDEX 01 00:51:36
  TRACK 36 AUDIO
    TITLE "13:cjc034_10084"
    INDEX 01 00:51:69
  TRACK 37 AUDIO
    TITLE "0:"
    INDEX 01 00:53:11
  TRACK 38 AUDIO
    TITLE "14:cjc034_10085"
    INDEX 01 00:53:43
  TRACK 39 AUDIO
    TITLE "0:"
    INDEX 01 00:54:62
  TRACK 40 AUDIO
    TITLE "15:cjc034_10086"
    INDEX 01 00:55:22
  TRACK 41 AUDIO
    TITLE "0:"
    INDEX 01 00:59:43
  TRACK 42 AUDIO
    TITLE "12:cjc034_10087"
    INDEX 01 01:01:01
  TRACK 43 AUDIO
    TITLE "0:"
    INDEX 01 01:02:06
  TRACK 44 AUDIO
    TITLE "13:cjc034_10088"
    INDEX 01 01:02:40
  TRACK 45 AUDIO
    TITLE "0:"
    INDEX 01 01:03:35
  TRACK 46 AUDIO
    TITLE "14:cjc034_10089"
    INDEX 01 01:03:67
  TRACK 47 AUDIO
    TITLE "0:"
    INDEX 01 01:04:72
  TRACK 48 AUDIO
    TITLE "15:cjc034_10090"
    INDEX 01 01:05:30
  TRACK 49 AUDIO
    TITLE "0:"
    INDEX 01 01:09:67
  TRACK 50 AUDIO
    TITLE "12:cjc034_10091"
    INDEX 01 01:11:23
  TRACK 51 AUDIO
    TITLE "0:"
    INDEX 01 01:12:38
  TRACK 52 AUDIO
    TITLE "13:cjc034_10092"
    INDEX 01 01:12:73
  TRACK 53 AUDIO
    TITLE "0:"
    INDEX 01 01:15:01
  TRACK 54 AUDIO
    TITLE "14:cjc034_10093"
    INDEX 01 01:15:33
  TRACK 55 AUDIO
    TITLE "0:"
    INDEX 01 01:16:48
  TRACK 56 AUDIO
    TITLE "15:cjc034_10094"
    INDEX 01 01:17:06
  TRACK 57 AUDIO
    TITLE "0:"
    INDEX 01 01:21:27
  TRACK 58 AUDIO
    TITLE "12:cjc034_10095"
    INDEX 01 01:22:58
  TRACK 59 AUDIO
    TITLE "0:"
    INDEX 01 01:24:18
  TRACK 60 AUDIO
    TITLE "13:cjc034_10096"
    INDEX 01 01:24:51
  TRACK 61 AUDIO
    TITLE "0:"
    INDEX 01 01:26:42
  TRACK 62 AUDIO
    TITLE "14:cjc034_10097"
    INDEX 01 01:26:74
  TRACK 63 AUDIO
    TITLE "0:"
    INDEX 01 01:28:33
  TRACK 64 AUDIO
    TITLE "15:cjc034_10098"
    INDEX 01 01:28:67
  TRACK 65 AUDIO
    TITLE "0:"
    INDEX 01 01:34:18
  TRACK 66 AUDIO
    TITLE "12:cjc034_10099"
    INDEX 01 01:35:51
  TRACK 67 AUDIO
    TITLE "0:"
    INDEX 01 01:36:56
  TRACK 68 AUDIO
    TITLE "13:cjc034_10100"
    INDEX 01 01:37:15
  TRACK 69 AUDIO
    TITLE "0:"
    INDEX 01 01:39:33
  TRACK 70 AUDIO
    TITLE "14:cjc034_10101"
    INDEX 01 01:39:66
  TRACK 71 AUDIO
    TITLE "0:"
    INDEX 01 01:40:72
  TRACK 72 AUDIO
    TITLE "15:cjc034_10102"
    INDEX 01 01:41:32
  TRACK 73 AUDIO
    TITLE "0:"
    INDEX 01 01:45:12
